<svg width="25" height="24" viewBox="0 0 25 24" fill="none" xmlns="http://www.w3.org/2000/svg">
<g id="vuesax/outline/people">
<g id="people">
<path id="Vector" d="M18.6665 7.91002C18.6365 7.91002 18.6165 7.91002 18.5865 7.91002H18.5365C16.6465 7.85002 15.2365 6.39001 15.2365 4.59001C15.2365 2.75001 16.7365 1.26001 18.5665 1.26001C20.3965 1.26001 21.8965 2.76001 21.8965 4.59001C21.8865 6.40001 20.4765 7.86001 18.6765 7.92001C18.6765 7.91001 18.6765 7.91002 18.6665 7.91002ZM18.5665 2.75002C17.5565 2.75002 16.7365 3.57002 16.7365 4.58002C16.7365 5.57002 17.5065 6.37002 18.4965 6.41002C18.5065 6.40002 18.5865 6.40002 18.6765 6.41002C19.6465 6.36002 20.3965 5.56002 20.4065 4.58002C20.4065 3.57002 19.5865 2.75002 18.5665 2.75002Z" fill="white"/>
<path id="Vector_2" d="M18.6767 15.28C18.2867 15.28 17.8967 15.25 17.5067 15.18C17.0967 15.11 16.8267 14.72 16.8967 14.31C16.9667 13.9 17.3567 13.63 17.7667 13.7C18.9967 13.91 20.2967 13.68 21.1667 13.1C21.6367 12.79 21.8867 12.4 21.8867 12.01C21.8867 11.62 21.6267 11.24 21.1667 10.93C20.2967 10.35 18.9767 10.12 17.7367 10.34C17.3267 10.42 16.9367 10.14 16.8667 9.73002C16.7967 9.32002 17.0667 8.93003 17.4767 8.86003C19.1067 8.57003 20.7967 8.88002 21.9967 9.68002C22.8767 10.27 23.3867 11.11 23.3867 12.01C23.3867 12.9 22.8867 13.75 21.9967 14.35C21.0867 14.95 19.9067 15.28 18.6767 15.28Z" fill="white"/>
<path id="Vector_3" d="M6.63664 7.91C6.62664 7.91 6.61664 7.91 6.61664 7.91C4.81664 7.85 3.40664 6.39 3.39664 4.59C3.39664 2.75 4.89664 1.25 6.72664 1.25C8.55664 1.25 10.0566 2.75 10.0566 4.58C10.0566 6.39 8.64664 7.85 6.84664 7.91L6.63664 7.16L6.70664 7.91C6.68664 7.91 6.65664 7.91 6.63664 7.91ZM6.73664 6.41C6.79664 6.41 6.84664 6.41 6.90664 6.42C7.79664 6.38 8.57664 5.58 8.57664 4.59C8.57664 3.58 7.75664 2.75999 6.74664 2.75999C5.73664 2.75999 4.91664 3.58 4.91664 4.59C4.91664 5.57 5.67664 6.36 6.64664 6.42C6.65664 6.41 6.69664 6.41 6.73664 6.41Z" fill="white"/>
<path id="Vector_4" d="M6.62666 15.28C5.39666 15.28 4.21666 14.95 3.30666 14.35C2.42666 13.76 1.91666 12.91 1.91666 12.01C1.91666 11.12 2.42666 10.27 3.30666 9.68002C4.50666 8.88002 6.19666 8.57003 7.82666 8.86003C8.23666 8.93003 8.50666 9.32002 8.43666 9.73002C8.36666 10.14 7.97666 10.42 7.56666 10.34C6.32666 10.12 5.01666 10.35 4.13666 10.93C3.66666 11.24 3.41666 11.62 3.41666 12.01C3.41666 12.4 3.67666 12.79 4.13666 13.1C5.00666 13.68 6.30666 13.91 7.53666 13.7C7.94666 13.63 8.33666 13.91 8.40666 14.31C8.47666 14.72 8.20666 15.11 7.79666 15.18C7.40666 15.25 7.01666 15.28 6.62666 15.28Z" fill="white"/>
<path id="Vector_5" d="M12.6665 15.38C12.6365 15.38 12.6165 15.38 12.5865 15.38H12.5365C10.6465 15.32 9.23648 13.86 9.23648 12.06C9.23648 10.22 10.7365 8.72998 12.5665 8.72998C14.3965 8.72998 15.8965 10.23 15.8965 12.06C15.8865 13.87 14.4765 15.33 12.6765 15.39C12.6765 15.38 12.6765 15.38 12.6665 15.38ZM12.5665 10.22C11.5565 10.22 10.7365 11.04 10.7365 12.05C10.7365 13.04 11.5065 13.84 12.4965 13.88C12.5065 13.87 12.5865 13.87 12.6765 13.88C13.6465 13.83 14.3965 13.03 14.4065 12.05C14.4065 11.05 13.5865 10.22 12.5665 10.22Z" fill="white"/>
<path id="Vector_6" d="M12.6664 22.76C11.4664 22.76 10.2664 22.45 9.33644 21.82C8.45644 21.23 7.94644 20.39 7.94644 19.49C7.94644 18.6 8.44644 17.74 9.33644 17.15C11.2064 15.91 14.1364 15.91 15.9964 17.15C16.8764 17.74 17.3864 18.58 17.3864 19.48C17.3864 20.37 16.8864 21.23 15.9964 21.82C15.0664 22.44 13.8664 22.76 12.6664 22.76ZM10.1664 18.41C9.69644 18.72 9.44644 19.11 9.44644 19.5C9.44644 19.89 9.70644 20.27 10.1664 20.58C11.5164 21.49 13.8064 21.49 15.1564 20.58C15.6264 20.27 15.8764 19.88 15.8764 19.49C15.8764 19.1 15.6164 18.72 15.1564 18.41C13.8164 17.5 11.5264 17.51 10.1664 18.41Z" fill="white"/>
</g>
</g>
</svg>
