<svg width="25" height="24" viewBox="0 0 25 24" fill="none" xmlns="http://www.w3.org/2000/svg">
<g id="vuesax/linear/scan">
<g id="scan">
<path id="Vector" d="M2.33337 9V6.5C2.33337 4.01 4.34337 2 6.83337 2H9.33337" stroke="white" stroke-width="1.5" stroke-linecap="round" stroke-linejoin="round"/>
<path id="Vector_2" d="M15.3334 2H17.8334C20.3234 2 22.3334 4.01 22.3334 6.5V9" stroke="white" stroke-width="1.5" stroke-linecap="round" stroke-linejoin="round"/>
<path id="Vector_3" d="M22.3334 16V17.5C22.3334 19.99 20.3234 22 17.8334 22H16.3334" stroke="white" stroke-width="1.5" stroke-linecap="round" stroke-linejoin="round"/>
<path id="Vector_4" d="M9.33337 22H6.83337C4.34337 22 2.33337 19.99 2.33337 17.5V15" stroke="white" stroke-width="1.5" stroke-linecap="round" stroke-linejoin="round"/>
<path id="Vector_5" d="M17.3334 9.5V14.5C17.3334 16.5 16.3334 17.5 14.3334 17.5H10.3334C8.33337 17.5 7.33337 16.5 7.33337 14.5V9.5C7.33337 7.5 8.33337 6.5 10.3334 6.5H14.3334C16.3334 6.5 17.3334 7.5 17.3334 9.5Z" stroke="white" stroke-width="1.5" stroke-linecap="round" stroke-linejoin="round"/>
<path id="Vector_6" d="M19.3334 12H5.33337" stroke="white" stroke-width="1.5" stroke-linecap="round" stroke-linejoin="round"/>
</g>
</g>
</svg>
