<svg width="25" height="24" viewBox="0 0 25 24" fill="none" xmlns="http://www.w3.org/2000/svg">
<g id="vuesax/outline/sms">
<g id="sms">
<path id="Vector" d="M17.3334 21.25H7.33337C3.68337 21.25 1.58337 19.15 1.58337 15.5V8.5C1.58337 4.85 3.68337 2.75 7.33337 2.75H17.3334C20.9834 2.75 23.0834 4.85 23.0834 8.5V15.5C23.0834 19.15 20.9834 21.25 17.3334 21.25ZM7.33337 4.25C4.47337 4.25 3.08337 5.64 3.08337 8.5V15.5C3.08337 18.36 4.47337 19.75 7.33337 19.75H17.3334C20.1934 19.75 21.5834 18.36 21.5834 15.5V8.5C21.5834 5.64 20.1934 4.25 17.3334 4.25H7.33337Z" fill="white"/>
<path id="Vector_2" d="M12.3332 12.87C11.4932 12.87 10.6432 12.61 9.99316 12.08L6.86315 9.57997C6.54315 9.31997 6.48316 8.84997 6.74316 8.52997C7.00316 8.20997 7.47316 8.14997 7.79316 8.40997L10.9231 10.91C11.6831 11.52 12.9731 11.52 13.7331 10.91L16.8632 8.40997C17.1832 8.14997 17.6632 8.19997 17.9132 8.52997C18.1732 8.84997 18.1232 9.32997 17.7932 9.57997L14.6632 12.08C14.0232 12.61 13.1732 12.87 12.3332 12.87Z" fill="white"/>
</g>
</g>
</svg>
